# xmcd CD database file
#
# Track frame offsets:
#	150
#	30130
#	48397
#	83175
#	97087
#	110215
#	127227
#	149032
#	166342
#	186232
#	201095
#	248175
#
# Disc length: 3605 seconds
#
# Revision: 0
# Processed by: cddbd v1.5.2PL0 Copyright (c) Steve Scherf et al.
# Submitted via: CDex 1.51
#
DISCID=b10e130c
DTITLE=La Martrice McQueen - Da blues honey
DYEAR=1998
DGENRE=Blues
TTITLE0=I just want to make love to you
TTITLE1=One good man
TTITLE2=I need some help
TTITLE3=I'm determined
TTITLE4=Somethin' ta hide
TTITLE5=Heartache
TTITLE6=McQueen's gonna do it again
TTITLE7=Natural born lover
TTITLE8=I thank you
TTITLE9=Evil girl blues
TTITLE10=Love me or leave me
TTITLE11=When the saints go marching in
EXTD=YEAR: 1998
EXTT0=
EXTT1=
EXTT2=
EXTT3=
EXTT4=
EXTT5=
EXTT6=
EXTT7=
EXTT8=
EXTT9=
EXTT10=
EXTT11=
PLAYORDER=
